# xmcd
#
# Track frame offsets: 
#        150
#        10020
#        22949
#        33135
#        52102
#        64742
#        80102
#        94870
#        107436
#        121445
#        134516
#        146182
#        166874
#        184450
#
# Disc length: 2682 seconds
#
# Revision: 0
# Processed by: cddbd v1.5.2PL0 Copyright (c) Steve Scherf et al.
# Submitted via: ExactAudioCopy v0.95b3
#
DISCID=be0a780e
DTITLE=The Who  - Meaty Beaty Big and Bouncy  WAV
DYEAR=1900
DGENRE=
TTITLE0=I Can't Explain
TTITLE1=The Kids Are Alright
TTITLE2=Happy Jack
TTITLE3=I Can See for Miles
TTITLE4=Pictures of Lily
TTITLE5=My Generation
TTITLE6=The Seeker
TTITLE7=Anyway, Anyhow, Anywhere
TTITLE8=Pinball Wizard
TTITLE9=A Legal Matter
TTITLE10=Boris the Spider
TTITLE11=Magic Bus
TTITLE12=Substitute
TTITLE13=I'm a Boy
EXTD=
EXTT0=
EXTT1=
EXTT2=
EXTT3=
EXTT4=
EXTT5=
EXTT6=
EXTT7=
EXTT8=
EXTT9=
EXTT10=
EXTT11=
EXTT12=
EXTT13=
PLAYORDER=
